<?xml version="1.0" encoding="utf-8"?>
<!-- Generator: Adobe Illustrator 16.0.0, SVG Export Plug-In . SVG Version: 6.00 Build 0)  -->
<!DOCTYPE svg PUBLIC "-//W3C//DTD SVG 1.1//EN" "http://www.w3.org/Graphics/SVG/1.1/DTD/svg11.dtd">
<svg version="1.1" id="Layer_1" xmlns="http://www.w3.org/2000/svg" xmlns:xlink="http://www.w3.org/1999/xlink" x="0px" y="0px"
	 width="165px" height="85px" viewBox="0 0 165 85" enable-background="new 0 0 165 85" xml:space="preserve">
<g>
	<path fill="#FFFFFF" d="M53.341,29.443c-0.84-0.533-1.714-1.077-2.619-1.633c-0.013,0.002-0.02,0.003-0.031,0.004
		c-0.86,0.995-1.574,1.826-2.237,2.603s-1.276,1.499-1.935,2.277c-0.657,0.779-1.36,1.613-2.198,2.617
		c0.001,0.011,0.002,0.016,0.004,0.026c0.731,0.588,1.486,1.059,2.266,1.412s1.582,0.592,2.41,0.713
		c0.829,0.12,1.684,0.124,2.564,0.013c0.099-0.013,0.147-0.019,0.246-0.03c0.762-0.65,1.498-1.262,2.21-1.84s1.398-1.124,2.06-1.633
		c0.66-0.509,1.296-0.981,1.904-1.423c-0.002-0.012-0.002-0.018-0.004-0.029c-0.705-0.491-1.445-0.994-2.219-1.507
		S54.182,29.977,53.341,29.443z"/>
	<path fill="#FFFFFF" d="M162.369,38.64c-0.156-0.473-0.383-1.055-0.743-1.632c-0.358-0.576-0.832-1.183-1.432-1.801
		c-0.82-0.845-1.504-1.395-1.984-1.705c-0.012-0.001-0.018,0-0.03-0.001c-0.321,0.2-0.482,0.3-0.803,0.5
		c-0.701,0.646-1.347,1.296-1.938,1.946s-1.133,1.301-1.624,1.946c-0.591,0.775-1.172,1.565-1.744,2.363s-1.135,1.605-1.688,2.426
		c-0.556,0.82-1.1,1.651-1.638,2.495c-0.538,0.845-1.07,1.703-1.593,2.573c0,0-0.304,0.443-1.067,1.13
		c-0.965,0.867-1.822,1.66-2.573,2.32c-0.751,0.661-1.396,1.207-1.938,1.632c-0.54,0.425-1.031,0.718-1.31,0.911
		c-1.304,0.903-2.366,1.711-2.992,1.699c-0.036-0.001-0.054-0.001-0.09-0.002c-0.238-0.004-0.662-0.115-0.682-0.184
		c-0.067-0.239,1.001-1.813,1.511-2.725c0.511-0.91,1.027-1.824,1.551-2.738c0.521-0.914,1.052-1.829,1.588-2.747
		c0.537-0.918,1.08-1.838,1.632-2.759c0.551-0.921,1.109-1.842,1.677-2.765c0.567-0.922,1.146-1.846,1.727-2.769
		c0.716-1.138,1.141-1.84,1.147-2.039c0.024-0.682-0.755-1.437-2.303-2.21c-1.011-0.506-1.867-0.918-2.536-1.249
		c-0.668-0.331-1.159-0.577-1.465-0.74c-0.025,0.01-0.038,0.017-0.062,0.027c-0.645,1.191-1.238,2.298-1.798,3.346
		s-1.083,2.034-1.586,2.985c-0.502,0.952-0.983,1.869-1.455,2.773c-0.473,0.904-0.936,1.793-1.403,2.699
		c-0.468,0.904-0.941,1.823-1.43,2.778c-0.219,0.429-0.442,0.868-0.67,1.313c-0.366,0.385-0.812,0.826-1.357,1.34
		c-0.868,0.817-1.965,1.798-3.284,2.946c-1.126,0.978-2.05,1.717-2.78,2.212c-0.729,0.495-1.262,0.749-1.604,0.75
		c-0.209,0.001-0.508-0.059-0.866-0.197c0-0.012,0.001-0.017,0.001-0.028c0.606-1.242,1.214-2.467,1.818-3.676
		c0.606-1.209,1.212-2.401,1.814-3.576c0.604-1.174,1.206-2.333,1.807-3.474c0.601-1.142,1.199-2.264,1.798-3.371
		c0.599-1.107,1.196-2.199,1.792-3.272s1.189-2.129,1.782-3.168s1.183-2.062,1.773-3.065c0.589-1.005,1.179-1.991,1.766-2.962
		c0.587-0.97,1.17-1.928,1.755-2.86c0.58-0.927,0.91-1.458,0.915-1.686c0.001-0.045,0.001-0.068,0.002-0.113
		c0.012-0.512-0.509-1.181-1.695-1.744c-0.925-0.444-1.619-0.774-2.315-1.105s-1.392-0.663-2.322-1.101
		c-0.048,0.071-0.292,0.51-0.73,1.319c-0.439,0.81-1.365,2.112-1.9,3.549c-0.004,0.013-0.067,0.149-0.194,0.4
		c-0.125,0.25-0.313,0.617-0.562,1.103c-0.249,0.485-0.558,1.089-0.926,1.81c-0.369,0.722-0.798,1.559-1.284,2.516
		c-0.487,0.956-1.032,2.031-1.635,3.224c-0.603,1.193-1.263,2.504-1.977,3.934s-1.482,2.978-2.302,4.646
		c-0.82,1.667-1.692,3.455-2.613,5.362c-0.921,1.906-1.905,3.938-2.903,6.08c-0.318,0.683-0.544,1.29-0.534,1.859
		c0.001,0.022,0.002,0.034,0.002,0.057c0.011,0.626,0.29,1.232,0.823,1.838c0.532,0.606,1.324,1.209,2.348,1.837
		c1.398,0.858,2.349,1.369,3.026,1.364c0.094-0.001,0.14-0.001,0.234-0.001c0.502-0.004,1.211-0.29,1.826-0.866
		c0.42-0.394,0.903-0.95,1.44-1.493c0.536-0.542,1.127-1.131,1.771-1.766c0.642-0.635,1.336-1.32,2.075-2.054
		c0.019-0.018,0.034-0.035,0.053-0.053c-0.066,0.222-0.115,0.433-0.115,0.621c-0.001,0.068-0.002,0.102-0.002,0.171
		c-0.003,0.568,0.21,1.126,0.621,1.676c0.413,0.55,1.033,1.093,1.818,1.642c0.896,0.625,1.66,1.126,2.297,1.462
		c0.639,0.337,1.151,0.516,1.549,0.521c0.797,0.014,1.63-0.374,2.445-1.206c0.451-0.459,1.082-1.086,1.892-1.867
		c0.809-0.78,2.96-2.804,2.979-2.79c0,0-1.151,2.188-1.702,3.287c-0.552,1.1-1.087,2.204-1.605,3.311
		c-0.52,1.105-1.022,2.215-1.51,3.326c-0.487,1.112-0.959,2.229-1.414,3.347c-0.457,1.117-0.897,2.236-1.321,3.358
		c-0.426,1.123-0.835,2.249-1.231,3.375c-0.328,0.934-0.511,1.612-0.516,2.011c-0.015,1.081,0.479,1.851,1.425,2.355
		c0.479,0.255,1.218,0.502,2.211,0.722c0.022-0.011,0.036-0.017,0.06-0.028c0.131-0.851,0.284-1.623,0.475-2.293
		c0.339-1.193,0.73-2.304,1.113-3.305c0.384-1.001,0.774-1.901,1.155-2.703c0.449-0.945,0.935-1.926,1.464-2.94
		c0.528-1.016,1.101-2.065,1.719-3.151c0.619-1.087,1.283-2.213,2.001-3.37c0.576-0.929,1.177-1.869,1.791-2.811
		c0.614-0.942,1.245-1.891,1.893-2.846c0.648-0.954,1.312-1.914,1.995-2.881c0.683-0.966,1.383-1.938,2.1-2.915
		c0.718-0.977,1.452-1.959,2.204-2.946c0.752-0.988,1.522-1.981,2.31-2.98s1.593-2.006,2.416-3.014
		c0.822-1.01,2.185-2.193,2.524-3.042C162.513,39.011,162.434,38.838,162.369,38.64z"/>
	<path fill="#FFFFFF" d="M34.92,54.538l-0.013-0.645c-0.043-2.136-1.075-4.104-3.098-5.851c-5.588-3.666-9.467-6.371-11.681-7.767
		c-3.219-1.972-4.897-3.927-4.941-6.16c-0.054-2.683,1.569-5.994,5.375-9.498c4.731-4.416,9.835-7.599,14.806-9.981l0.099-0.003
		c-3.973,7.581-5.936,13.781-5.838,18.697l0.006,0.298c0.081,4.072,2.079,7.113,5.993,9.072l0.198-0.004
		c0.981-3.149,1.688-5.051,1.875-5.651c1.784-5.252,4.993-11.278,9.475-18.223c1.494-2.316,4.646-6.254,9.706-11.62l-0.003-0.1
		c-3.012-4.064-6.629-6.078-10.899-5.992l-2.086,0.041c-0.392,0.305-0.73,0.759-1.066,1.362c-2.302-0.849-3.801-1.266-4.546-1.251
		l-0.646,0.013c-3.766,0.521-8.944,2.413-14.873,6.605C11.396,15.858,6.098,24.26,6.258,32.305l0.004,0.199
		c0.035,1.738,0.414,3.32,0.941,4.849c0.788,2.171,3.582,5.246,8.964,8.566c4.627,2.84,7.164,5.472,7.224,8.451
		c0.038,1.938-0.863,4.091-2.702,6.562c-3.457,3.547-6.203,5.34-8.239,5.381c-0.298,0.006-0.562-0.734-0.789-2.221
		c-0.051-2.532,1.15-7.077,3.603-13.685c-0.101-0.047-0.4-0.141-0.948-0.229c-1.838,0.037-3.768,0.423-5.789,1.208
		c-4.078,2.268-6.104,5.388-6.023,9.411l0.019,0.943c0.023,1.142,0.148,2.432,0.72,3.662c2.344,5.419,6.419,8.021,11.882,7.912
		l1.888-0.037c2.026-0.489,4.976-2.088,8.544-5.04C31.958,62.993,34.995,58.313,34.92,54.538z"/>
	<path fill="#FFFFFF" d="M122.602,73.375c-2.421-2.583-6.839-4.563-13.287-5.719c-4.45-0.796-7.266-1.015-8.462-1.025
		c-1.403-0.166-2.804-0.271-4.199-0.337c0.162-0.522,0.331-1.05,0.507-1.582c0.36-1.092,0.751-2.208,1.167-3.344
		s1.094-3.412,1.329-3.473c0.141-0.036,2.216,1.646,2.963,1.918c0.964,0.35,1.835,0.594,2.584,0.751
		c0.748,0.158,1.446,0.268,1.916,0.189c0.393-0.065,0.932-0.398,1.501-0.844c0.568-0.445,1.204-1.058,1.898-1.843
		c0.695-0.785,1.448-1.749,2.256-2.882c0.612-0.858,1.156-1.68,1.63-2.457c0.475-0.778,0.883-1.512,1.235-2.198
		c0.352-0.686,0.652-1.326,0.899-1.907c0.604-1.417,1.124-2.756,1.562-3.992c0.438-1.238,0.79-2.377,1.05-3.43
		c0.261-1.052,0.428-2.012,0.498-2.881s0.042-1.649-0.088-2.338c-0.04-0.204-0.06-0.306-0.099-0.51
		c-0.196-0.992-0.764-1.933-1.921-2.703c-0.962-0.642-1.846-1.097-2.616-1.384c-0.77-0.287-1.438-0.41-1.977-0.381
		c-0.71,0.04-1.482,0.363-2.147,1.049c-1.243,1.284-2.115,2.344-2.225,2.338c-0.25-0.014-1.406-1.408-2.161-1.984
		c-0.756-0.576-1.551-1.068-2.39-1.478c-0.024,0.001-0.037,0.002-0.062,0.003c-0.568,0.604-1.049,1.207-1.46,1.8
		c-0.41,0.593-0.751,1.176-1.036,1.742c-0.428,0.851-0.855,1.75-1.283,2.692c-0.426,0.943-0.851,1.93-1.271,2.964
		s-0.838,2.113-1.25,3.236c-0.289,0.787-0.574,1.604-0.857,2.433c-0.129-0.224-0.308-0.408-0.536-0.549
		c-0.013,0.001-0.019,0.001-0.03,0.002c-0.039,0.195-0.058,0.295-0.096,0.491c-0.085,0.417-0.359,0.985-0.832,1.69
		c-0.474,0.705-1.153,1.545-2.026,2.507c-1.206,1.327-2.239,2.397-3.069,3.212s-1.464,1.383-1.855,1.736
		c-1.411,1.275-2.344,2.013-2.938,2.056c-0.083,0.005-0.125,0.009-0.209,0.015c-0.178,0.013-0.605-0.041-0.633-0.098
		c-0.075-0.159,0.812-1.868,1.234-2.823c0.424-0.955,0.859-1.923,1.307-2.905c0.448-0.982,0.908-1.979,1.383-2.988
		c0.474-1.011,0.961-2.038,1.464-3.076s1.019-2.089,1.551-3.157c0.532-1.066,1.084-2.148,1.644-3.242
		c0.389-0.76,0.606-1.26,0.594-1.486c0-0.012,0-0.016-0.001-0.026c-0.023-0.427-0.357-0.849-0.964-1.229
		c-0.313-0.197-0.84-0.5-1.591-0.844s-1.834-0.676-2.983-1.073c-0.857-0.296-1.561-0.611-2.086-0.576
		c-0.086,0.006-0.129,0.01-0.217,0.016c-0.772,0.053-1.739,0.609-2.524,1.631c-0.157,0.204-0.574,0.719-1.252,1.476
		c-0.679,0.757-1.614,1.775-2.79,3.053c-0.001-0.011-0.002-0.017-0.003-0.028c0.322-0.597,0.476-1.007,0.458-1.233
		c-0.004-0.045-0.006-0.068-0.01-0.114c-0.037-0.48-0.575-1.01-1.635-1.494c-0.369-0.169-0.938-0.387-1.7-0.66
		c-0.764-0.274-1.839-0.558-2.878-1.003c-0.406-0.175-0.899-0.321-1.485-0.268c-0.479,0.044-0.975,0.248-1.48,0.609
		c-0.507,0.361-1.11,0.897-1.548,1.562c-0.097,0.146-0.482,0.639-1.16,1.421c-0.678,0.781-2.733,3.321-2.885,3.273
		c0,0,0.032-0.09,0.102-0.211c0.374-0.642,0.523-1.198,0.497-1.452c-0.001-0.012-0.001-0.017-0.003-0.028
		c-0.066-0.649-0.971-1.302-2.674-1.863c-1.238-0.408-2.207-0.716-2.91-0.941c-0.702-0.225-1.141-0.367-1.321-0.447
		c-0.24,0.623-0.358,0.934-0.598,1.557c-0.875,2.286-1.66,4.385-2.358,6.295c-0.58,1.587-1.099,3.036-1.566,4.362
		c-0.049-0.028-0.089-0.063-0.143-0.087c-0.013,0.001-0.019,0.002-0.03,0.003c0.002,0.012,0.002,0.018,0.004,0.029
		c0.038,0.311-0.066,0.753-0.322,1.333s-0.661,1.298-1.221,2.157c-0.355,0.548-0.871,1.21-1.52,1.994
		c-0.648,0.785-1.43,1.697-2.318,2.732c-1.171,1.365-2.132,2.41-2.886,3.127c-0.754,0.718-1.306,1.105-1.674,1.159
		c-0.083,0.012-0.125,0.018-0.207,0.03c-0.178,0.025-0.638-0.006-0.674-0.073c-0.099-0.187,0.736-2.053,1.109-3.078
		s0.749-2.05,1.13-3.074c0.381-1.023,0.766-2.045,1.156-3.066s0.786-2.044,1.188-3.062c0.402-1.02,0.811-2.038,1.227-3.054
		c0.416-1.017,0.848-2.034,1.27-3.042c0.45-1.079,0.765-1.762,0.732-2.015c-0.073-0.563-0.672-1.117-1.845-1.509
		c-1.042-0.334-1.824-0.583-2.607-0.83c-0.784-0.248-1.568-0.492-2.616-0.817c-0.454,1.319-0.874,2.544-1.267,3.702
		s-0.758,2.249-1.108,3.299c-0.352,1.051-0.685,2.062-1.013,3.06s-0.649,1.98-0.974,2.979c-0.323,0.998-0.649,2.011-0.985,3.063
		c-0.335,1.052-0.682,2.144-1.046,3.305c-0.365,1.161-0.747,2.389-1.154,3.712c-0.238,0.787-0.375,1.442-0.281,2.031
		c0.004,0.022,0.005,0.034,0.008,0.057c0.145,0.898,0.769,1.778,1.951,2.428c1.281,0.704,2.346,1.202,3.195,1.509
		c0.85,0.306,1.484,0.42,1.908,0.357c0.116-0.018,0.175-0.026,0.291-0.044c0.438-0.064,0.899-0.327,1.382-0.785
		c0.481-0.457,0.972-1.18,1.508-1.96c0.618-0.899,1.35-1.749,1.943-2.51s1.13-1.445,1.604-2.062c0.41-0.536,0.763-1.014,1.072-1.445
		c-0.1,0.32-0.15,0.49-0.151,0.494c-0.105,0.868-0.62,1.89-0.548,2.425c0.016,0.113,0.021,0.172,0.037,0.285
		c0.091,0.676,0.549,1.399,1.441,2.044c0.553,0.4,1.151,0.745,1.757,1.053c0.606,0.309,1.595,0.9,1.855,0.83
		c0.015-0.004,0.165-0.396,0.421-1.142c0.281-0.814,0.59-1.703,0.936-2.643c0.345-0.939,0.724-1.936,1.134-2.992
		c0.41-1.058,0.852-2.175,1.322-3.352c0.47-1.177,0.98-2.42,1.497-3.713c0.262-0.654,0.638-1.562,1.241-2.485
		c0.274-0.42,0.617-0.905,1.031-1.415c0.413-0.51,0.902-1.058,1.447-1.631c1.119-1.175,2.102-2.177,2.939-2.974
		c0.839-0.796,1.532-1.399,2.074-1.811c0.542-0.413,1.114-0.708,1.166-0.667c0.015,0.012-0.067,0.265-0.193,0.562
		c-0.49,1.265-0.929,2.403-1.335,3.466s-0.779,2.051-1.143,3.013c-0.362,0.963-0.713,1.9-1.071,2.863s-0.725,1.953-1.116,3.019
		c-0.391,1.065-0.807,2.208-1.266,3.478c-0.416,0.875-0.572,1.636-0.507,2.229c0.002,0.012,0.003,0.018,0.004,0.028
		c0.024,0.227,0.104,0.455,0.195,0.693c0.298,0.781,1.087,1.594,2.459,2.339c1.386,0.752,2.354,1.179,2.378,1.154
		c0.003-0.003,0.062-0.24,0.203-0.62c0.454-1.22,0.938-2.418,1.402-3.571c0.463-1.154,0.921-2.271,1.374-3.354
		c0.452-1.083,0.898-2.135,1.334-3.15c0.437-1.016,0.861-2.001,1.277-2.949c0.626-1.425,1.013-2.29,1.177-2.503
		c0.359-0.465,0.836-1.15,1.464-1.856c0.627-0.706,1.395-1.496,2.303-2.368c1.393-1.335,2.517-2.328,3.359-2.988
		c0.842-0.661,1.403-0.992,1.679-1.012c0.013-0.001,0.019-0.005,0.031-0.006c-0.916,2.187-1.728,4.16-2.444,5.916
		c-0.716,1.756-1.335,3.295-1.863,4.619c-0.527,1.323-0.963,2.43-1.311,3.319s-0.608,1.563-0.783,2.017
		c-0.174,0.454-0.263,0.691-0.269,0.707c-0.257,0.796-0.589,1.508-0.511,2.069c0.037,0.268,0.094,0.454,0.104,0.505
		c0.078,0.439,0.513,1.129,1.155,1.671c0.893,0.754,1.919,1.278,2.659,1.666c1.281,0.672,2.211,1.025,2.828,0.979
		c0.071-0.005,0.105-0.008,0.176-0.013c0.735-0.055,1.516-0.54,2.236-1.416c0.465-0.563,1.006-1.204,1.62-1.901
		s1.301-1.465,2.052-2.305c0.903-1.007,1.705-1.915,2.389-2.718s1.256-1.502,1.719-2.097c0.268-0.345,0.494-0.659,0.689-0.937
		c-0.233,0.777-0.47,1.551-0.693,2.338c-0.331,1.163-0.65,2.339-0.956,3.527s-0.597,2.391-0.872,3.604
		c-0.276,1.214-0.535,2.443-0.777,3.682c-0.117,0.592-0.227,1.16-0.332,1.715c-2.686,0.039-5.328,0.169-7.895,0.295
		c-5.904,0.287-12.582,0.76-19.989,1.57c-7.213,0.814-17.352,2.257-30.569,3.959c-1.991,0.257-3.176,0.309-3.594,0.522l-0.064,0.03
		c-0.29,0.148-0.502,0.429-0.671,0.857c-0.177,0.572,0.104,2.594,0.788,6.061c0.075,0.03,1.058,0.114,2.924,0.233
		c3.799,0.507,6.598,1.112,8.459,1.78c1.785,0.641,3.647,1.41,5.489,2.364c1.085-1.376,1.061-2.669-0.095-3.904l-0.109-0.116
		c-0.632-0.674-1.632-1.335-3.071-2.012l-0.022-0.021c0.097-0.05,2.39-0.289,6.878-0.92c11.989-1.697,21.063-2.908,27.188-3.616
		c4.328-0.481,8.748-0.798,13.267-0.931c-0.109,0.689-0.203,1.32-0.283,1.893c-0.161,1.154-0.266,2.072-0.316,2.752
		s-0.051,1.118-0.002,1.322c0.048,0.201,0.073,0.304,0.121,0.506c0.162,0.716,0.586,1.285,1.284,1.707
		c0.699,0.421,1.673,0.694,2.936,0.819c0.033-0.025,0.05-0.039,0.083-0.063c-0.061-0.296-0.105-0.824-0.098-1.583
		c0.009-0.759,0.078-1.75,0.232-2.952c0.117-0.914,0.262-1.858,0.441-2.82c0.102-0.543,0.216-1.094,0.337-1.651
		c0.794,0,1.591,0.005,2.393,0.017c2.468,0.051,6.017,0.239,10.595,0.972c4.471,0.716,7.876,1.665,10.354,2.639
		c2.609,1.012,4.981,2.175,7.056,3.527l0.16-0.082c-0.358-2.258-1.196-4.063-2.483-5.438L122.602,73.375z M103.229,51.987
		c0.426-0.905,0.884-1.855,1.373-2.848s1.011-2.027,1.565-3.104c0.556-1.077,1.145-2.195,1.768-3.355
		c0.624-1.161,1.234-2.667,1.978-3.608c0.688-0.872,1.799-1.559,2.478-2.013c0.676-0.453,1.203-0.69,1.571-0.728
		c0.135-0.015,0.203-0.021,0.339-0.036c0.153-0.003,0.725,0.054,0.804,0.184c0.155,0.254-0.289,1.769-0.458,2.519
		c-0.17,0.75-0.36,1.411-0.558,1.967c-0.306,0.865-0.671,1.833-1.133,2.877c-0.462,1.045-1.017,2.184-1.698,3.387
		c-0.62,1.096-1.264,2.115-1.902,3.052c-0.637,0.937-1.278,1.795-1.919,2.573s-1.282,1.478-1.919,2.1
		c-0.638,0.622-1.596,1.639-1.902,1.634c-0.293-0.005-1.565-1.496-1.574-2.015C102.032,54.064,102.803,52.893,103.229,51.987z"/>
</g>
</svg>
